<svg id="Layer_1" data-name="Layer 1" xmlns="http://www.w3.org/2000/svg" viewBox="0 0 1994.53 438.38"><defs><style>.cls-1{fill:#225639;}</style></defs><title>Autumn_logo_</title><path class="cls-1" d="M557.43,325.65c-10.68,40-36.69,59.37-64,59.37-29.55,0-48-18.48-48.34-62.71l-.34-191.1H368l.33,194.44c0,45.07,14.91,112.73,91,112.73,48.68,0,86-36,100-96.05l10.67,89.38h64.7V131.21H557.43Z"/><path class="cls-1" d="M1040.09,325.65c-10.67,40-36.69,59.37-64,59.37-29.54,0-48-18.48-48.34-62.71l-.33-191.1H850.67L851,325.65c0,45.07,14.9,112.73,91,112.73,48.69,0,86-36,100-96.05l10.67,89.38h64.71V131.21h-77.38Z"/><path class="cls-1" d="M1797.35,124.54c-48.69,0-86,36-100,96.05l-10.67-89.38h-64.71V431.7h77.38V237.26c10.67-40,36.69-59.36,64-59.36,29.54,0,48,18.47,48.34,62.7l.33,191.1h76.71l-.34-194.44C1888.38,192.2,1873.48,124.54,1797.35,124.54Z"/><polygon class="cls-1" points="782.7 25.79 705.32 25.79 705.32 131.21 658.76 131.21 658.76 147.88 705.32 147.88 705.32 431.7 782.7 431.7 782.7 147.88 829.26 147.88 829.26 131.21 782.7 131.21 782.7 25.79"/><path class="cls-1" d="M177.67,0h-.22A80.56,80.56,0,0,0,98.76,63.31L0,431.71H79.81l35.87-145.25H240.61l34.93,145.25h79.58L256.36,63.31A80.56,80.56,0,0,0,177.67,0ZM118.9,269.78,177.67,19.6l59.72,250.18Z"/><path class="cls-1" d="M1502,124.53c-47.68,0-77.83,34.56-92.21,92.36-4.86-42.6-26.58-92.36-91.86-92.36-48.69,0-79.11,36-93.11,96.06l-10.68-89.38h-64.7v300.5h77.38V237.27c10.67-40,31.72-59.37,59.07-59.37,29.55,0,48,18.47,48.34,62.7l.34,191.11h76.7L1411,237.27v-.22c10.69-39.88,31.72-59.16,59-59.16,29.55,0,48,18.48,48.34,62.71l.34,191.1h76.7L1595,237.26C1595,192.19,1578.15,124.53,1502,124.53Z"/><path class="cls-1" d="M1926.1,8.24l-29.72,82.58h13.22L1917.18,69h32.26L1957,90.82h13.23L1940.49,8.24Zm-5.29,50.24L1933,23.24h.65l12.17,35.24Z"/><rect class="cls-1" x="1982.07" y="8.24" width="12.46" height="82.57"/></svg>