<svg id="Layer_1" data-name="Layer 1" xmlns="http://www.w3.org/2000/svg" xmlns:xlink="http://www.w3.org/1999/xlink" viewBox="0 0 1694.75 629.46"><defs><style>.cls-1{fill:#49435e;}.cls-2{fill:url(#radial-gradient);}.cls-3{fill:url(#radial-gradient-2);}.cls-4{fill:#6bc5fc;}.cls-5,.cls-6{opacity:0.53;}.cls-5{fill:url(#radial-gradient-3);}.cls-6{fill:url(#radial-gradient-4);}.cls-7{fill:#b2b2b2;}</style><radialGradient id="radial-gradient" cx="452.82" cy="495.51" r="393.94" gradientUnits="userSpaceOnUse"><stop offset="0.4" stop-color="#fffd6c"/><stop offset="0.55" stop-color="#ffe44a"/><stop offset="0.83" stop-color="#ffae00"/></radialGradient><radialGradient id="radial-gradient-2" cx="434.73" cy="507.58" fx="314.52498712552074" r="263.76" gradientUnits="userSpaceOnUse"><stop offset="0.76" stop-color="#3e92c6"/><stop offset="0.97" stop-color="#2f7293"/></radialGradient><radialGradient id="radial-gradient-3" cx="365.38" cy="386.48" r="353.36" gradientTransform="translate(0 11.42) scale(1 0.97)" gradientUnits="userSpaceOnUse"><stop offset="0.48" stop-color="#fff"/><stop offset="0.68" stop-color="#29abe2"/><stop offset="0.82" stop-color="#50baf0"/><stop offset="0.99" stop-color="#fff"/></radialGradient><radialGradient id="radial-gradient-4" cx="288.75" cy="347.64" r="524.39" gradientUnits="userSpaceOnUse"><stop offset="0.41" stop-color="#fff"/><stop offset="0.78" stop-color="#29abe2"/></radialGradient></defs><title>Surf_logo_</title><path class="cls-1" d="M950.84,287.52c-59.86-15.33-74.7-22.76-74.7-45.51v-1c0-16.82,15.34-30.18,44.52-30.18,23.75,0,47.5,8.41,72.73,23.25a36.6,36.6,0,0,0,19.3,5.44c19.79,0,35.62-15.33,35.62-35.12a34.73,34.73,0,0,0-16.83-30.18c-31.16-19.79-67.77-30.67-109.82-30.67-70.75,0-121.21,41.55-121.21,104.38v1c0,68.77,45,88.06,114.77,105.87,57.89,14.84,69.76,24.74,69.76,44v1c0,20.29-18.8,32.65-50,32.65-33.64,0-62.33-11.87-88.55-31.16a36.59,36.59,0,0,0-21.77-6.93c-19.79,0-35.62,15.34-35.62,35.12,0,11.88,5.94,22.76,14.35,28.7a223.46,223.46,0,0,0,130.11,41.56c74.7,0,127.14-38.59,127.14-107.36v-1C1060.67,331.06,1021.1,305.82,950.84,287.52Z"/><path class="cls-1" d="M1285.09,226.67a37.59,37.59,0,0,0-37.61,37.6V377.56c0,35.62-18.3,53.93-47,53.93S1155,413.18,1155,377.56V264.27a37.6,37.6,0,0,0-75.2,0v137c0,60.85,33.15,98.45,90,98.45,38.09,0,60.35-20.29,77.66-42.55v3a37.6,37.6,0,1,0,75.2,0V264.27A37.58,37.58,0,0,0,1285.09,226.67Z"/><path class="cls-1" d="M1476.07,226.67c-22.26,0-40.07,23.75-51,49.47V264.27a37.6,37.6,0,1,0-75.19,0V460.18a37.6,37.6,0,1,0,75.19,0V389.93c0-53.43,21.28-82.62,59.37-91.53,15.34-3.46,28.2-15.33,28.2-35.12C1512.68,242,1499.32,226.67,1476.07,226.67Z"/><path class="cls-1" d="M1663.08,232.61h-32.65V222.22c0-19.79,9.9-28.7,27.21-28.7h6.43c16.82,0,30.68-14.34,30.68-31.16A30.58,30.58,0,0,0,1669,132.18c-8.41-1.49-18.8-2-30.68-2q-40.06,0-60.85,20.78c-13.85,13.85-21.27,35.12-21.27,64.31v16.82h-3a31,31,0,0,0-31.16,31.17c0,17.32,13.85,30.67,31.16,30.67h3V460.18a37.6,37.6,0,0,0,75.2,0V294h31.66c17.32,0,31.17-13.35,31.17-30.67S1680.4,232.61,1663.08,232.61Z"/><path class="cls-2" d="M629,315C629,142.82,489.1,5.05,316.54,3.25,157.33,1.59,7.29,142.43,4.09,315,.9,487.12,144,626.72,316.54,626.72S629,487.15,629,315Z"/><path class="cls-3" d="M459.42,236.87c12.42,0-30.68-35.9-42.51-39.71C247.5,142.53,90.47,378.32,224.31,528.86l19,18.49c95.66,83.09,210.66,54.42,299.24-27.48,28.7-26.54,68.24-99.74,68.24-99.74s-56.43,80.32-146.47,80.32c-117.42,0-152.43-79.88-152.43-127.58C311.86,337.71,327,236.87,459.42,236.87Z"/><path class="cls-4" d="M369.52,546.24c-111.74,0-176.75-77.18-176.75-168.1,0-96.21,78.3-157,177.31-157.29,42-.11,78.42,13.25,83.66,15,12.67,4.15,16.12-4.32,7.85-18.26C452,201.35,439.47,180.45,416,162c-62-48.74-172.87-82.66-293.29-4.44C44.06,208.66-1.16,310.21,17,407.76c38.67,126.85,159.39,219,299.56,219A312.31,312.31,0,0,0,574.92,490.28c.79-1.2,1.6-2.38,2.38-3.6s1.48-2.29,2.21-3.44a352.28,352.28,0,0,0,31-62.55l.12-.37C608.53,424.5,544.68,546.24,369.52,546.24Z"/><path class="cls-5" d="M369.52,546.24c-111.74,0-176.75-77.18-176.75-168.1,0-96.21,78.3-157,177.31-157.29,42-.11,78.42,13.25,83.66,15,12.67,4.15,16.12-4.32,7.85-18.26C452,201.35,439.47,180.45,416,162c-62-48.74-172.87-82.66-293.29-4.44C44.06,208.66-1.16,310.21,17,407.76c38.67,126.85,159.39,219,299.56,219A312.31,312.31,0,0,0,574.92,490.28c.79-1.2,1.6-2.38,2.38-3.6s1.48-2.29,2.21-3.44a352.28,352.28,0,0,0,31-62.55l.12-.37C608.53,424.5,544.68,546.24,369.52,546.24Z"/><path class="cls-6" d="M35.32,446.8C17.17,349.25,62.39,247.7,141,196.62c120.43-78.23,231.25-44.31,293.3,4.43a156.92,156.92,0,0,1,31,32.72c1.66-3.29.58-9-3.7-16.22C452,201.35,439.47,180.45,416,162c-62-48.74-172.87-82.66-293.29-4.44C44.06,208.66-1.16,310.21,17,407.76A300.66,300.66,0,0,0,42.31,467C39.76,460.33,37.4,453.63,35.32,446.8Z"/><path class="cls-7" d="M315.25,629.46A320.18,320.18,0,0,1,88.08,534.24C29.79,474.86-1.47,397,.05,314.93,3.17,146.7,148.8.49,312.41.49c1,0,1.9,0,2.87,0,84.37.88,163.51,33.82,222.84,92.78A310.45,310.45,0,0,1,630.44,315C630.44,488.39,489.05,629.46,315.25,629.46ZM312.4,6C151.65,6,8.6,149.68,5.54,315,4.05,395.59,34.75,472.08,92,530.39A314.63,314.63,0,0,0,315.25,624C486,624,625,485.36,625,315a305,305,0,0,0-90.7-217.81C475.94,39.24,398.16,6.86,315.22,6Z"/></svg>